<svg width="20" height="19" viewBox="0 0 20 19" fill="none" xmlns="http://www.w3.org/2000/svg">
<path d="M0.490234 6.18555C0.490234 2.72852 2.86328 0.287109 6.02734 0.287109C7.83398 0.287109 9.31836 1.15625 10.1875 2.46484C11.0762 1.14648 12.541 0.287109 14.3477 0.287109C17.5117 0.287109 19.8848 2.72852 19.8848 6.18555C19.8848 10.3457 16.3984 14.4375 10.9004 17.9531C10.6855 18.0801 10.3926 18.2168 10.1875 18.2168C9.98242 18.2168 9.68945 18.0801 9.48438 17.9531C3.97656 14.4375 0.490234 10.3457 0.490234 6.18555ZM2.0625 6.18555C2.0625 9.81836 5.90039 13.7344 9.99219 16.4492C10.0801 16.5176 10.1484 16.5664 10.1875 16.5664C10.2266 16.5664 10.2949 16.5176 10.3926 16.4492C14.4746 13.7344 18.3125 9.81836 18.3125 6.18555C18.3125 3.58789 16.6328 1.85938 14.3672 1.85938C12.541 1.85938 11.5254 3.02148 10.8516 3.97852C10.5684 4.35938 10.4219 4.47656 10.1875 4.47656C9.95312 4.47656 9.78711 4.36914 9.52344 3.97852C8.89844 3.00195 7.84375 1.85938 6.00781 1.85938C3.74219 1.85938 2.0625 3.58789 2.0625 6.18555Z" fill="white"/>
</svg>
