<svg width="45" height="45" viewBox="0 0 45 45" fill="none" xmlns="http://www.w3.org/2000/svg">
<path d="M0 22.5C0 10.0736 10.0736 0 22.5 0C34.9264 0 45 10.0736 45 22.5C45 34.9264 34.9264 45 22.5 45C10.0736 45 0 34.9264 0 22.5Z" fill="#6C79DB"/>
<path d="M25.0899 22.5004L30.5453 17.0034C31.0004 16.545 31.0004 15.8024 30.5453 15.344C30.0907 14.8856 29.3535 14.8856 28.8992 15.344L23.4434 20.841L17.9876 15.3438C17.5333 14.8854 16.7957 14.8854 16.3415 15.3438C15.8862 15.8022 15.8862 16.5448 16.3415 17.0032L21.7969 22.5002L16.3415 27.9967C15.8862 28.4553 15.8862 29.1977 16.3415 29.6561C16.5683 29.886 16.8665 29.9994 17.1648 29.9994C17.4623 29.9994 17.7608 29.886 17.9874 29.6561L23.4434 24.1591L28.8992 29.6565C29.126 29.8862 29.4241 29.9998 29.7226 29.9998C30.0196 29.9998 30.3183 29.8862 30.5449 29.6565C31 29.1979 31 28.4555 30.5449 27.9972L25.0899 22.5004Z" fill="white"/>
</svg>
