<svg width="45" height="45" viewBox="0 0 45 45" fill="none" xmlns="http://www.w3.org/2000/svg">
<path d="M0 22.5C0 10.0736 10.0736 0 22.5 0V0C34.9264 0 45 10.0736 45 22.5V22.5C45 34.9264 34.9264 45 22.5 45V45C10.0736 45 0 34.9264 0 22.5V22.5Z" fill="#6C79DB"/>
<path fill-rule="evenodd" clip-rule="evenodd" d="M26.9656 16.339L31.4379 16.339C31.7502 16.339 32 16.0947 32 15.7893C32 15.4839 31.7502 15.2396 31.4379 15.2396L26.9656 15.2396C26.7033 13.9651 25.5499 13 24.1674 13C22.7849 13 21.6315 13.9651 21.3691 15.2396L12.5663 15.2396C12.254 15.2396 12.0042 15.4839 12.0042 15.7893C12.0042 16.0947 12.254 16.339 12.5663 16.339L21.3733 16.339C21.6356 17.6136 22.7891 18.5787 24.1716 18.5787C25.554 18.5787 26.7033 17.6136 26.9656 16.339ZM22.4393 15.7893C22.4393 14.8568 23.2138 14.0994 24.1674 14.0994C25.121 14.0994 25.8955 14.8568 25.8955 15.7893C25.8955 16.7218 25.121 17.4792 24.1674 17.4792C23.2138 17.4792 22.4393 16.7177 22.4393 15.7893ZM22.2519 23.0701L31.4379 23.0701C31.7502 23.0701 32 22.8258 32 22.5204C32 22.215 31.7502 21.9707 31.4379 21.9707L22.2519 21.9707C21.9896 20.6961 20.8361 19.731 19.4537 19.731C18.0712 19.731 16.9178 20.6961 16.6554 21.9707L12.5663 21.9707C12.254 21.9707 12.0042 22.215 12.0042 22.5204C12.0042 22.8258 12.254 23.0701 12.5663 23.0701L16.6554 23.0701C16.9178 24.3446 18.0712 25.3097 19.4537 25.3097C20.832 25.3097 21.9896 24.3487 22.2519 23.0701ZM17.7256 22.5204C17.7256 21.5879 18.5001 20.8305 19.4537 20.8305C20.4072 20.8305 21.1818 21.5879 21.1818 22.5204C21.1818 23.4529 20.4072 24.2103 19.4537 24.2103C18.5001 24.2103 17.7256 23.4529 17.7256 22.5204ZM31.4379 29.7604L26.9656 29.7604C26.7033 31.039 25.554 32 24.1716 32C22.7891 32 21.6356 31.0349 21.3733 29.7604L12.5621 29.7604C12.2498 29.7604 12 29.5161 12 29.2107C12 28.9053 12.2498 28.661 12.5621 28.661L21.3691 28.661C21.6315 27.3864 22.7849 26.4214 24.1674 26.4214C25.5499 26.4214 26.7033 27.3864 26.9656 28.661L31.4379 28.661C31.7502 28.661 32 28.9053 32 29.2107C32 29.5161 31.7502 29.7604 31.4379 29.7604ZM24.1674 27.5208C23.2138 27.5208 22.4393 28.2782 22.4393 29.2107C22.4393 30.1432 23.2138 30.9006 24.1674 30.9006C25.121 30.9006 25.8955 30.1432 25.8955 29.2107C25.8955 28.2782 25.121 27.5208 24.1674 27.5208Z" fill="white"/>
</svg>
