<svg width="18" height="18" viewBox="0 0 18 18" fill="none" xmlns="http://www.w3.org/2000/svg">
<path fill-rule="evenodd" clip-rule="evenodd" d="M17.0134 7.83526H12.5989C12.2663 5.8759 10.5607 4.38393 8.50668 4.38393C6.45263 4.38393 4.74704 5.8759 4.4145 7.83526H0C0.355881 3.44879 4.02852 -6.29425e-05 8.50668 -6.29425e-05C12.9848 -6.29425e-05 16.6575 3.44879 17.0134 7.83526ZM17.0053 9.32771H12.5819C12.2118 11.2409 10.528 12.6857 8.50668 12.6857C6.48538 12.6857 4.80152 11.2409 4.43145 9.32771H0.00807338C0.408027 13.6697 4.06029 17.0698 8.50668 17.0698C12.9531 17.0698 16.6053 13.6697 17.0053 9.32771ZM5.65756 8.53481C5.65756 10.1083 6.93315 11.3839 8.50668 11.3839C10.0802 11.3839 11.3558 10.1083 11.3558 8.53481C11.3558 6.96128 10.0802 5.68568 8.50668 5.68568C6.93315 5.68568 5.65756 6.96128 5.65756 8.53481Z" fill="#6C79DB"/>
</svg>
